<svg xmlns="http://www.w3.org/2000/svg" viewBox="0 0 133.23 84"><defs><style>.cls-1{fill:#fff;}</style></defs><title>Asset 1</title><g id="Layer_2" data-name="Layer 2"><g id="Layer_1-2" data-name="Layer 1"><path class="cls-1" d="M128.57,12.81l1.21-3.32L98.14,27.75l-1.63.95.63,1.78a21.83,21.83,0,1,1-4-6.88L94.4,25,96,24.1,132,3.32,133.23,0h0L94.9,22.13a24.21,24.21,0,0,0-18.39-8.46,23.83,23.83,0,0,0-12,3.22A24.11,24.11,0,1,0,99.28,29.72Z"/><path class="cls-1" d="M76.56,20.15A17.62,17.62,0,1,0,91.83,29,17.52,17.52,0,0,0,76.56,20.15Zm7.68,30.9a15.32,15.32,0,0,1-20.95-5.61,15.34,15.34,0,1,1,20.95,5.61Z"/><path class="cls-1" d="M45.14,35.38c.07-.92.19-2.38.27-3.47a1.24,1.24,0,0,0-1.34-1.35c-2.72.22-8.22,1.17-7.77,5.26.16,1.42.36,3.46.51,5.2.25,2.88-.92,5.61-1.82,8.3-.81,2.43-1.39,5.36-3.46,7.76-1.63,1.87-4.62,2.74-7.18,4.64a68.43,68.43,0,0,1-6.83,4.84c-3.92,2.26-3.54,2.91-7.45,5.17s-4.14,1.88-8,4.14A4.2,4.2,0,0,0,.78,81.94a5.1,5.1,0,0,0,6.76,1.32c3-1.81,3-2.43,6.59-4.49,3.91-2.26,3.72-2.6,7.63-4.86,2.68-1.55,5.49-2.2,7.81-3.18a35.58,35.58,0,0,1,8-2,22.37,22.37,0,0,1,8.16-.39,20.88,20.88,0,0,1,7.73,2.89c1.36.89,2,1.24,4.18,2.52,4.22,2.46,6.91-1.46,8-3.65A1.25,1.25,0,0,0,65,68.4c-.84-.31-1.91-.71-2.57-1a33.39,33.39,0,0,1-8-5.59c-2.31-2.15-3.81-5.19-5.44-8s-3.4-5.67-4.12-8.74S44.91,38.58,45.14,35.38Z"/></g></g></svg>