<svg xmlns="http://www.w3.org/2000/svg" viewBox="0 0 243.31 46.03"><defs><style>.cls-1{fill:#fff;}</style></defs><title>Side Logo</title><g id="Layer_2" data-name="Layer 2"><g id="Layer_1-2" data-name="Layer 1"><path class="cls-1" d="M82.14,29.56a6.85,6.85,0,0,1-2.39.41,7,7,0,0,1-3.6-.9,6.11,6.11,0,0,1-2.34-2.42A7,7,0,0,1,73,23.31a7.62,7.62,0,0,1,.81-3.56,6,6,0,0,1,2.27-2.44,6.44,6.44,0,0,1,3.37-.88,7.29,7.29,0,0,1,2.23.33,7.44,7.44,0,0,1,1.8.81l-1,2.46A4.78,4.78,0,0,0,79.53,19a3.5,3.5,0,0,0-1.89.56A4.11,4.11,0,0,0,76.24,21a4.43,4.43,0,0,0-.52,2.14,5,5,0,0,0,.48,2.24,3.66,3.66,0,0,0,1.39,1.5,4,4,0,0,0,2.11.54,4.57,4.57,0,0,0,1.74-.31,3.8,3.8,0,0,0,1.23-.75l1.08,2.34A6.17,6.17,0,0,1,82.14,29.56Z"/><path class="cls-1" d="M89,19.85a6.83,6.83,0,0,1,2.46-2.49,6.59,6.59,0,0,1,6.75,0,7.07,7.07,0,0,1,2.49,2.49,6.6,6.6,0,0,1,.92,3.37,6.53,6.53,0,0,1-.92,3.38,6.83,6.83,0,0,1-2.49,2.46,6.73,6.73,0,0,1-6.76,0A6.65,6.65,0,0,1,89,26.6a6.52,6.52,0,0,1-.91-3.38A6.59,6.59,0,0,1,89,19.85Zm2.34,5.49a4.07,4.07,0,0,0,3.59,2.11,3.77,3.77,0,0,0,2-.57,3.93,3.93,0,0,0,1.44-1.53,4.61,4.61,0,0,0,0-4.29,4.16,4.16,0,0,0-1.46-1.54,4,4,0,0,0-4.13,0,4.16,4.16,0,0,0-1.46,1.54,4.38,4.38,0,0,0-.54,2.16A4.16,4.16,0,0,0,91.32,25.34Z"/><path class="cls-1" d="M113.88,29.83l-2.79-4.22h-1.75v4.22h-2.61V16.58h4a5.57,5.57,0,0,1,3.82,1.2A4.09,4.09,0,0,1,115.93,21a5.3,5.3,0,0,1-.51,2.3A3.82,3.82,0,0,1,113.84,25l3.08,4.81Zm-4.54-6.74h1.86a1.82,1.82,0,0,0,1.54-.62,2.09,2.09,0,0,0,.49-1.34,2.55,2.55,0,0,0-.41-1.37,1.76,1.76,0,0,0-1.61-.66h-1.87Z"/><path class="cls-1" d="M129.36,16.58V19.1h-3.22V29.83h-2.61V19.1h-3.1V16.58Z"/><path class="cls-1" d="M137,16.58V29.83H134.4V16.58Z"/><path class="cls-1" d="M151.28,29.56a6.85,6.85,0,0,1-2.39.41,7,7,0,0,1-3.6-.9A6.11,6.11,0,0,1,143,26.65a7,7,0,0,1-.81-3.34,7.62,7.62,0,0,1,.81-3.56,5.88,5.88,0,0,1,2.27-2.44,6.43,6.43,0,0,1,3.36-.88,7.19,7.19,0,0,1,2.23.33,7.11,7.11,0,0,1,1.8.81l-1,2.46A4.78,4.78,0,0,0,148.67,19a3.5,3.5,0,0,0-1.89.56,4,4,0,0,0-1.4,1.52,4.43,4.43,0,0,0-.52,2.14,5,5,0,0,0,.48,2.24,3.66,3.66,0,0,0,1.39,1.5,4,4,0,0,0,2.1.54,4.62,4.62,0,0,0,1.75-.31,3.74,3.74,0,0,0,1.22-.75l1.08,2.34A6.07,6.07,0,0,1,151.28,29.56Z"/><path class="cls-1" d="M164.57,27.23h-4.4l-1.08,2.6h-2.57l6-13.77h.14l6,13.77h-3ZM163.7,25l-1.28-3.22L161.09,25Z"/><path class="cls-1" d="M175.67,16.58V27.31h6.23v2.52h-8.84V16.58Z"/><path class="cls-1" d="M192.82,16.81V28.13h6.62v1.7h-8.37v-13Z"/><path class="cls-1" d="M212.33,26.41h-5l-1.38,3.42h-1.73l5.69-13.56H210l5.69,13.56h-2Zm-.59-1.52-1.86-4.75L208,24.89Z"/><path class="cls-1" d="M228.93,24.31a2.86,2.86,0,0,1,.64,1.86,3.38,3.38,0,0,1-.6,2.06,3.53,3.53,0,0,1-1.58,1.21,5.79,5.79,0,0,1-2.15.39h-3.88v-13h3.37a5.15,5.15,0,0,1,3.1.82,2.89,2.89,0,0,1,1.1,2.46,3.48,3.48,0,0,1-.46,1.79,3.18,3.18,0,0,1-1.31,1.2A4.12,4.12,0,0,1,228.93,24.31Zm-5.82-1.81h2a1.91,1.91,0,0,0,1.52-.58,2.12,2.12,0,0,0,.51-1.47,1.78,1.78,0,0,0-.61-1.48,2.7,2.7,0,0,0-1.71-.48h-1.69ZM227,27.69a1.69,1.69,0,0,0,.74-1.5,1.63,1.63,0,0,0-.8-1.51,3.6,3.6,0,0,0-1.93-.49h-1.93v4h2A3.13,3.13,0,0,0,227,27.69Z"/><path class="cls-1" d="M241,18.52a5.53,5.53,0,0,0-1.5-.23,2.66,2.66,0,0,0-1.68.48,1.52,1.52,0,0,0-.62,1.3,1.54,1.54,0,0,0,.73,1.32,9.24,9.24,0,0,0,2.07,1,9.51,9.51,0,0,1,1.71.78,3.67,3.67,0,0,1,1.15,1.17,3.64,3.64,0,0,1,.46,1.9,3.54,3.54,0,0,1-2,3.22A4.86,4.86,0,0,1,239,30a7,7,0,0,1-2.32-.39,7.34,7.34,0,0,1-2-1l.77-1.38a6.35,6.35,0,0,0,1.6.85,4.9,4.9,0,0,0,1.75.35,3.18,3.18,0,0,0,1.83-.54,1.82,1.82,0,0,0,.78-1.6,1.73,1.73,0,0,0-.66-1.43,7.19,7.19,0,0,0-1.84-1,14.41,14.41,0,0,1-1.83-.81A3.82,3.82,0,0,1,235.91,22a2.79,2.79,0,0,1-.52-1.74,3.11,3.11,0,0,1,1.07-2.47,4.27,4.27,0,0,1,2.78-1,7.73,7.73,0,0,1,3.91,1l-.67,1.35A8.47,8.47,0,0,0,241,18.52Z"/><path class="cls-1" d="M70.45,7l.66-1.82-17.33,10-.9.52.35,1a12,12,0,1,1-2.18-3.77l.67.79.9-.52L72.34,1.82,73,0h0L52,12.12A13.21,13.21,0,1,0,42,33.9,13.2,13.2,0,0,0,54.4,16.28Z"/><path class="cls-1" d="M42,11a9.66,9.66,0,0,0,0,19.31,9.66,9.66,0,0,0,8.35-14.48A9.69,9.69,0,0,0,42,11ZM46.16,28A8.3,8.3,0,0,1,42,29.1,8.41,8.41,0,1,1,46.16,28Z"/><path class="cls-1" d="M24.74,19.39c0-.51.1-1.31.14-1.9a.68.68,0,0,0-.73-.75c-1.49.12-4.5.64-4.26,2.89.09.78.2,1.89.28,2.85a11.23,11.23,0,0,1-1,4.54,11.2,11.2,0,0,1-1.9,4.25c-.88,1-2.52,1.51-3.93,2.55A35.39,35.39,0,0,1,9.6,36.47c-2.15,1.24-1.94,1.6-4.08,2.83s-2.27,1-4.41,2.27A2.3,2.3,0,0,0,.43,44.9a2.78,2.78,0,0,0,3.7.72c1.62-1,1.66-1.33,3.61-2.46,2.15-1.24,2-1.42,4.18-2.66a32.14,32.14,0,0,1,4.28-1.74,19.38,19.38,0,0,1,4.41-1.07,12.37,12.37,0,0,1,4.47-.22,11.47,11.47,0,0,1,4.24,1.59c.74.48,1.08.68,2.29,1.38,2.31,1.35,3.79-.8,4.39-2a.68.68,0,0,0-.37-1c-.46-.17-1.05-.39-1.41-.57a18,18,0,0,1-4.4-3.06,18.65,18.65,0,0,1-3-4.39,18.48,18.48,0,0,1-2.25-4.79C24.19,23,24.61,21.14,24.74,19.39Z"/></g></g></svg>